<svg width="24" height="24" viewBox="0 0 24 24" fill="none" xmlns="http://www.w3.org/2000/svg">
<path d="M13.022 14.999V18.25C13.022 18.662 13.357 19 13.774 19C13.962 19 14.149 18.929 14.292 18.794C16.067 17.109 19.237 14.102 20.688 12.725C20.888 12.536 21 12.273 21 12C21 11.726 20.888 11.464 20.688 11.275C19.237 9.898 16.067 6.89 14.292 5.207C14.149 5.071 13.962 5 13.774 5C13.357 5 13.022 5.337 13.022 5.75V9.001H4.002C3.471 9.001 3 9.471 3 10.001V13.999C3 14.529 3.471 14.999 4.002 14.999H13.022Z" fill="#F1F1F1"/>
</svg>
