<svg width="24" height="24" viewBox="0 0 24 24" fill="none" xmlns="http://www.w3.org/2000/svg">
<path d="M12.002 2.005C17.52 2.005 22 6.485 22 12.002C22 17.52 17.52 22 12.002 22C6.485 22 2.005 17.52 2.005 12.002C2.005 6.485 6.485 2.005 12.002 2.005V2.005ZM12.002 10.938L9.281 8.216C9.135 8.07 8.942 7.997 8.75 7.997C8.346 7.997 8 8.32101 8 8.74601C8 8.93901 8.073 9.13001 8.219 9.27701L10.941 11.999L8.21301 14.727C8.06601 14.874 7.993 15.067 7.993 15.258C7.993 15.685 8.34301 16.008 8.74401 16.008C8.93601 16.008 9.128 15.935 9.274 15.789L12.002 13.061L14.731 15.789C14.877 15.935 15.069 16.008 15.261 16.008C15.662 16.008 16.011 15.685 16.011 15.258C16.011 15.067 15.938 14.874 15.791 14.727L13.064 11.999L15.781 9.282C15.927 9.135 16 8.94401 16 8.75101C16 8.32601 15.654 8.00101 15.25 8.00101C15.058 8.00101 14.865 8.074 14.719 8.221L12.002 10.938Z" fill="#F1F1F1"/>
</svg>
