<svg width="24" height="24" viewBox="0 0 24 24" fill="none" xmlns="http://www.w3.org/2000/svg">
<g clip-path="url(#clip0_57_10)">
<path fill-rule="evenodd" clip-rule="evenodd" d="M15.75 18.805C13.315 18.241 10.546 16.799 11.643 14.719C14.984 8.386 12.529 5 9.00097 5C5.40197 5 3.00697 8.516 6.35697 14.719C7.48797 16.811 4.63297 18.253 2.24997 18.805C0.0749695 19.309 -0.00703052 20.393 -3.05151e-05 22.289L0.00396948 23H17.997L18 22.311C18.007 20.402 17.934 19.311 15.75 18.805ZM14.204 11C14.601 10.131 15.042 8.937 15.019 8.105C14.484 7.395 14.182 6.48 14.182 5.549C14.182 2.921 16.498 1 19.091 1C21.668 1 24 2.907 24 5.549C24 8.3 21.246 10.869 17.468 9.847C16.782 10.315 15.268 10.786 14.204 11ZM18.389 4.629L16.797 4.849L17.956 5.963L17.673 7.545L19.091 6.787L20.508 7.545L20.226 5.963L21.385 4.849L19.792 4.629L19.091 3.182L18.389 4.629Z" fill="#BD0202"/>
</g>
<defs>
<clipPath id="clip0_57_10">
<rect width="24" height="24" fill="white"/>
</clipPath>
</defs>
</svg>
