<svg width="24" height="24" viewBox="0 0 24 24" fill="none" xmlns="http://www.w3.org/2000/svg">
<path d="M11.998 2C17.515 2 21.995 6.48 21.995 11.998C21.995 17.515 17.515 21.995 11.998 21.995C6.48 21.995 2 17.515 2 11.998C2 6.48 6.48 2 11.998 2V2ZM16.841 10.211C16.949 10.07 16.998 9.911 16.998 9.755C16.998 9.366 16.692 9 16.249 9H7.748C7.303 9 6.998 9.367 6.998 9.755C6.998 9.912 7.048 10.071 7.157 10.212C8.36 11.766 10.409 14.411 11.415 15.71C11.557 15.894 11.775 16 12.007 16C12.237 16 12.456 15.893 12.598 15.709L16.841 10.211Z" fill="#BD0202"/>
</svg>
