<svg width="24" height="24" viewBox="0 0 24 24" fill="none" xmlns="http://www.w3.org/2000/svg">
<g clip-path="url(#clip0_57_26)">
<path d="M7 22V20H13V22H7ZM14.311 14.338L24 4.534L19.464 0L9.774 9.802L14.311 14.338V14.338ZM7 8H8.743L10.721 6H7V8ZM18 16H20V11.427L18 13.45V16ZM8.424 11.282L7 17L12.826 15.682L8.424 11.282ZM2 10V8H5V6H0V10H2ZM18 18V20H15V22H20V18H18ZM5 20H2V18H0V22H5V20ZM0 16H2V12H0V16Z" fill="#F1F1F1"/>
</g>
<defs>
<clipPath id="clip0_57_26">
<rect width="24" height="24" fill="white"/>
</clipPath>
</defs>
</svg>
