<svg width="24" height="24" viewBox="0 0 24 24" fill="none" xmlns="http://www.w3.org/2000/svg">
<path d="M12 0C5.373 0 0 5.373 0 12C0 18.627 5.373 24 12 24C18.627 24 24 18.627 24 12C24 5.373 18.627 0 12 0ZM12 19C11.279 19 10.582 18.891 9.927 18.688C10.213 18.223 10.64 17.461 10.797 16.853L11.234 15.189C11.463 15.625 12.129 15.993 12.838 15.993C14.949 15.993 16.471 14.052 16.471 11.639C16.471 9.327 14.583 7.597 12.155 7.597C9.134 7.597 7.53 9.624 7.53 11.832C7.53 12.859 8.077 14.137 8.952 14.544C9.084 14.606 9.155 14.578 9.186 14.45L9.379 13.657C9.396 13.586 9.388 13.525 9.33 13.455C9.042 13.105 8.809 12.46 8.809 11.858C8.809 10.314 9.978 8.82 11.97 8.82C13.69 8.82 14.894 9.992 14.894 11.668C14.894 13.562 13.937 14.873 12.693 14.873C12.006 14.873 11.492 14.305 11.657 13.608C11.854 12.775 12.237 11.878 12.237 11.277C12.237 10.74 11.949 10.291 11.351 10.291C10.649 10.291 10.083 11.018 10.083 11.991C10.083 12.612 10.294 13.031 10.294 13.031C10.294 13.031 9.6 15.965 9.473 16.51C9.331 17.115 9.387 17.964 9.448 18.518C6.845 17.498 5 14.965 5 12C5 8.134 8.135 5 12 5C15.865 5 19 8.134 19 12C19 15.866 15.865 19 12 19V19Z" fill="#F1F1F1"/>
</svg>
